<?xml version="1.0" encoding="UTF-8"?>
<svg id="_图层_1" data-name="图层 1" xmlns="http://www.w3.org/2000/svg" viewBox="0 0 1024 1024">
  <defs>
    <style>
      .cls-1 {
        font-size: 38.9px;
      }

      .cls-1, .cls-2 {
        font-family: AcuminConcept-Semibold, 'Acumin Variable Concept';
        font-variation-settings: 'wght' 600, 'wdth' 100, 'slnt' 0;
        font-weight: 600;
      }

      .cls-3 {
        fill: #5595b9;
      }

      .cls-3, .cls-4, .cls-5 {
        stroke-width: 0px;
      }

      .cls-6 {
        letter-spacing: .11em;
      }

      .cls-7 {
        letter-spacing: .12em;
      }

      .cls-4 {
        fill: #f4f6f9;
      }

      .cls-8 {
        letter-spacing: .12em;
      }

      .cls-9 {
        letter-spacing: .11em;
      }

      .cls-10 {
        letter-spacing: .12em;
      }

      .cls-5 {
        fill: #4d587c;
      }

      .cls-11 {
        letter-spacing: .12em;
      }

      .cls-12 {
        letter-spacing: .12em;
      }

      .cls-13 {
        letter-spacing: .12em;
      }

      .cls-14 {
        letter-spacing: .12em;
      }

      .cls-2 {
        font-size: 170.82px;
      }

      .cls-15 {
        letter-spacing: .12em;
      }
    </style>
  </defs>
  <rect class="cls-4" width="1024" height="1024"/>
  <path class="cls-3" d="m283.3,630.61c-15.51,0-31.03,0-46.54-.01-7.75,0-16.83-.66-23.23-5.56-7.3-5.59-11.58-21.96-2.28-27.89,1.6-1.02,3.6-1.15,5.5-1.23,33.61-1.49,67.41.19,101.05.37,8.35.04,16.77-.56,25.06-1.63,21.66-2.82,36.02-19.95,38.19-44.24,1.33-14.9,1.67-29.73.51-44.67-.54-6.91-2.76-9.67-9.93-9.6-25.42.23-50.84,0-76.26-.14-16.68-.09-16.73-.21-16.5-16.43.18-12.08,4.59-16.57,16.72-16.61,36.95-.13,73.9.03,110.85-.4,10.67-.12,9.48,8.32,9.65,16.39,1.07,53.74,8.63,132.71-59.63,148.41-14.15,3.25-28.81,3.27-43.33,3.26-9.94,0-19.88,0-29.82,0Z"/>
  <g>
    <path class="cls-5" d="m345.35,412.57v15.56s-10.68,0-10.68,0c-22.88,0-54.42-3.39-74.27,11.71-8.29,6.31-13.39,14.52-15.9,24.52-4.89,19.48-.9,39.11-.97,58.66-.02,4.9,4.25,4.55,7.62,4.56,14.68.05,29.36.02,44.03,0,14.68,0,29.36.14,44.03-.07,6.06-.09,8.14,2.28,8.22,8.38.22,15.08-.53,25.45-17.54,26.51-38.22,2.39-76.24-.06-114.4-.3-4.56-.03-7.36-1.88-7.35-7.05.03-28-1.45-56.08.18-83.98,2.02-34.48,20.7-62.11,54.54-72.04,15.2-4.46,31.19-5.34,47.03-5.6,6.52-.1,13.04-.07,19.56.05,3.68.07,7.5-.09,11.22.14h4.67v18.94Z"/>
    <rect class="cls-5" x="378.92" y="394.57" width="35.66" height="35.66"/>
  </g>
  <g>
    <text class="cls-2" transform="translate(465.44 551.55) scale(.99) skewX(-9)"><tspan class="cls-7" x="0" y="0">J</tspan><tspan class="cls-12" x="86.78" y="0">S</tspan><tspan class="cls-14" x="213.87" y="0">C</tspan></text>
    <text class="cls-1" transform="translate(462.11 605.96) scale(.98 .99) skewX(-9.11)"><tspan class="cls-15" x="0" y="0">D</tspan><tspan class="cls-10" x="33.1" y="0">R</tspan><tspan class="cls-11" x="63.41" y="0">O</tspan><tspan class="cls-8" x="97.64" y="0">P</tspan><tspan class="cls-9" x="127.32" y="0">S</tspan><tspan class="cls-13" x="155.95" y="0">HI</tspan><tspan class="cls-6" x="205.86" y="0">PP</tspan><tspan class="cls-13" x="264.67" y="0">I</tspan><tspan class="cls-15" x="281.13" y="0">NG </tspan></text>
  </g>
</svg>